SplineFontDB: 3.2
FontName: SeventhGRADE
FullName: SeventhGRADE
FamilyName: SeventhGRADE
Weight: Regular
Copyright: NoCopyright (cC) 2020 Mehmet PINARCI
UComments: "Font / Typeset was created by Mehmet PINARCI "
Version: 001.000
ItalicAngle: 0
UnderlinePosition: -102
UnderlineWidth: 51
Ascent: 819
Descent: 205
InvalidEm: 0
LayerCount: 2
Layer: 0 0 "Back" 1
Layer: 1 0 "Fore" 0
XUID: [1021 66 1585159542 11509]
FSType: 0
OS2Version: 0
OS2_WeightWidthSlopeOnly: 0
OS2_UseTypoMetrics: 1
CreationTime: 1582381812
ModificationTime: 1582511242
PfmFamily: 17
TTFWeight: 400
TTFWidth: 5
LineGap: 94
VLineGap: 0
OS2TypoAscent: 0
OS2TypoAOffset: 1
OS2TypoDescent: 0
OS2TypoDOffset: 1
OS2TypoLinegap: 94
OS2WinAscent: 0
OS2WinAOffset: 1
OS2WinDescent: 0
OS2WinDOffset: 1
HheadAscent: 0
HheadAOffset: 1
HheadDescent: 0
HheadDOffset: 1
OS2Vendor: 'PfEd'
MarkAttachClasses: 1
DEI: 91125
LangName: 1033
Encoding: ISO8859-1
UnicodeInterp: none
NameList: AGL For New Fonts
DisplaySize: -48
AntiAlias: 1
FitToEm: 0
WinInfo: 0 38 14
BeginPrivate: 0
EndPrivate
TeXData: 1 0 3146 517120 288358 192238 799435 1048576 192238 783286 444596 497025 792723 393216 433062 380633 303038 157286 324010 404750 52429 2506097 1059062 262144
BeginChars: 260 107

StartChar: A
Encoding: 65 65 0
Width: 990
VWidth: 0
Flags: HW
LayerCount: 2
Fore
SplineSet
786 760 m 1
 975 420 l 1
 834 -16 l 25
 657 -14 l 25
 506 111 l 25
 557 346 l 25
 416 412 l 25
 360 260 l 25
 465 96 l 25
 272 -16 l 25
 272 -16 125 29 125 31 c 0
 125 33 31 295 31 295 c 1
 391 817 l 1
 786 760 l 1
559 623 m 1
 436 471 l 1
 436 471 576 401 578 403 c 0
 580 405 727 618 727 618 c 1
 559 623 l 1
EndSplineSet
Validated: 33
EndChar

StartChar: B
Encoding: 66 66 1
Width: 1024
VWidth: 0
Flags: HW
LayerCount: 2
Fore
SplineSet
707 243 m 5
 617 298 l 29
 405 200 l 29
 405 200 429 160 431 160 c 4
 433 160 709 139 709 145 c 4
 709 151 707 243 707 243 c 5
666 429 m 5
 761 533 l 29
 666 614 l 29
 569 547 l 29
 666 429 l 5
136 778 m 5
 268 721 l 5
 328 776 l 5
 730 790 l 5
 976 583 l 5
 833 383 l 5
 833 383 963 267 961 267 c 4
 959 267 935 20 935 22 c 4
 935 24 566 4 566 4 c 5
 232 62 l 5
 232 62 137 23 136 22 c 4
 134 20 82 269 82 269 c 5
 136 778 l 5
EndSplineSet
Validated: 33
EndChar

StartChar: C
Encoding: 67 67 2
Width: 1000
VWidth: 0
Flags: HW
LayerCount: 2
Fore
SplineSet
445 788 m 17
 545.779368754 737.300180208 611.227741039 801.075593021 697 799 c 9
 992 682 l 25
 892 487 l 25
 745 515 515 559 513 557 c 0
 511 555 253 406 253 406 c 25
 355 152 l 25
 484 154 l 25
 712 373 l 25
 712 373 980 233 978 231 c 0
 976 229 855 22 845 10 c 0
 835 -2 197 0 181 0 c 0
 165 0 13 418 13 418 c 25
 445 788 l 17
EndSplineSet
Validated: 524321
EndChar

StartChar: D
Encoding: 68 68 3
Width: 1024
VWidth: 0
Flags: HW
LayerCount: 2
Fore
SplineSet
714 193 m 24
 769 216 769 311 773 315 c 0
 777 319 738 537 738 537 c 25
 612 552 l 25
 612 552 600 244 600 242 c 0
 600 240 681 178 714 193 c 24
63 687 m 25
 246 774 l 25
 246 774 283 702 285 700 c 0
 287 698 499 780 638 766 c 0
 847 746 911 641 913 643 c 0
 915 645 990 473 990 473 c 5
 990 473 1071 165 933 76 c 0
 740 -49 269 43 267 53 c 0
 265 63 210 203 210 203 c 1
 195 136 l 1
 195 136 195 41 193 41 c 0
 191 41 86 31 86 41 c 0
 86 51 72 435 63 687 c 25
EndSplineSet
Validated: 33
EndChar

StartChar: E
Encoding: 69 69 4
Width: 1024
VWidth: 0
Flags: HW
LayerCount: 2
Fore
SplineSet
73 563 m 1
 97 696 l 1
 224 788 l 1
 347 711 l 1
 490 776 l 1
 1006 739 l 25
 964 636 904 476 899 476 c 0
 894 476 832 499 789 515 c 25
 613 594 l 1
 398 575 l 1
 435 422 l 1
 579 481 l 1
 579 481 656 432 658 432 c 0
 660 432 577 279 577 279 c 1
 370 248 l 25
 394 186 l 25
 863 281 l 1
 1000 233 l 25
 927 0 l 1
 118 55 l 25
 86 100 36 170 36 172 c 0
 36 174 286 344 286 344 c 1
 93 426 l 1
 73 563 l 1
EndSplineSet
Validated: 33
EndChar

StartChar: F
Encoding: 70 70 5
Width: 1024
VWidth: 0
Flags: HW
LayerCount: 2
Fore
SplineSet
116 510 m 5
 155 750 l 29
 155 750 230 758 234 758 c 4
 238 758 291 698 291 698 c 29
 389 764 l 29
 389 764 880 784 884 784 c 4
 888 784 971 563 971 563 c 29
 848 508 l 29
 711 590 l 29
 374 580 l 29
 403 471 l 29
 752 473 l 29
 752 473 776 379 776 377 c 4
 776 375 674 256 674 256 c 29
 403 350 l 29
 420 219 l 5
 392 12 l 29
 134 41 l 5
 116 510 l 5
EndSplineSet
Validated: 1
EndChar

StartChar: G
Encoding: 71 71 6
Width: 1024
VWidth: 0
Flags: HW
LayerCount: 2
Fore
SplineSet
916 555 m 29
 665 485 l 29
 585 518 l 29
 269 444 l 29
 366 154 l 29
 683 96 l 29
 742 221 l 29
 660 209 l 29
 648 158 l 29
 419 178 l 29
 419 178 454 367 458 377 c 4
 462 387 800 377 816 377 c 4
 832 377 941 238 939 236 c 4
 937 234 753 20 753 20 c 29
 261 14 l 29
 19 317 l 29
 54 670 l 29
 54 670 577 780 583 782 c 4
 589 784 947 633 947 633 c 29
 916 555 l 29
EndSplineSet
Validated: 33
EndChar

StartChar: H
Encoding: 72 72 7
Width: 1024
VWidth: 0
Flags: HW
LayerCount: 2
Fore
SplineSet
83 748 m 29
 345 676 l 29
 361 406 l 29
 325 377 l 29
 325 377 337 358 339 356 c 4
 341 354 603 348 603 348 c 29
 638 535 l 29
 646 702 l 29
 646 702 927 791 929 791 c 4
 931 791 986 688 988 686 c 4
 990 684 912 33 912 33 c 29
 640 20 l 29
 640 20 589 103 589 111 c 4
 589 119 597 299 595 301 c 4
 593 303 368 315 368 315 c 29
 302 61 l 29
 243 25 l 29
 243 25 42 45 44 45 c 4
 46 45 32 276 32 276 c 29
 77 307 l 29
 48 365 l 29
 83 748 l 29
EndSplineSet
Validated: 33
EndChar

StartChar: I
Encoding: 73 73 8
Width: 1024
VWidth: 0
Flags: HW
LayerCount: 2
Fore
SplineSet
73 764 m 25
 397 777 900 799 902 799 c 0
 904 799 914 698 914 698 c 25
 882 586 l 25
 646 543 l 25
 714 145 l 25
 888 178 l 25
 955 131 l 25
 933 33 l 25
 75 14 l 25
 75 14 48 64 48 68 c 0
 48 72 89 129 89 129 c 25
 316 125 l 25
 382 541 l 25
 134 547 l 25
 73 764 l 25
EndSplineSet
Validated: 1
EndChar

StartChar: J
Encoding: 74 74 9
Width: 1024
VWidth: 0
Flags: HW
LayerCount: 2
Fore
SplineSet
185 725 m 25
 278 760 l 25
 278 760 957 764 955 762 c 0
 953 760 916 637 916 637 c 25
 837 639 l 25
 794 78 l 25
 478 16 l 25
 187 53 l 25
 42 143 l 25
 42 143 91 404 93 408 c 0
 95 412 239 362 239 362 c 25
 239 362 241 311 241 309 c 0
 241 307 466 100 470 100 c 0
 474 100 645 233 645 233 c 5
 645 233 685 618 683 618 c 0
 681 618 482 618 482 618 c 1
 374 459 l 25
 308 475 l 25
 185 725 l 25
EndSplineSet
Validated: 33
EndChar

StartChar: K
Encoding: 75 75 10
Width: 1024
VWidth: 0
Flags: HW
LayerCount: 2
Fore
SplineSet
118 434 m 29
 48 692 l 29
 151 776 l 29
 372 780 l 29
 413 666 l 29
 413 666 321 369 333 381 c 4
 345 393 720 772 722 774 c 4
 724 776 1024 713 1024 713 c 29
 957 510 l 29
 468 369 l 29
 501 348 l 29
 699 397 l 29
 890 80 l 29
 855 16 l 29
 855 16 568 4 568 10 c 4
 568 16 423 313 423 313 c 29
 382 307 l 29
 378 29 l 29
 325 18 l 29
 116 59 l 29
 42 12 l 29
 28 29 l 29
 118 434 l 29
EndSplineSet
Validated: 33
EndChar

StartChar: L
Encoding: 76 76 11
Width: 833
VWidth: 0
Flags: HW
LayerCount: 2
Fore
SplineSet
50 762 m 5
 50 762 129 769 179 770 c 24
 247 771 351 766 351 766 c 0
 351 766 363 664 335 610 c 24
 316 572 250 595 243 553 c 24
 214 394 249 139 249 139 c 1
 249 139 536 166 538 166 c 0
 540 166 585 201 585 201 c 1
 585 201 612 142 759 322 c 0
 825 402 812 59 808 61 c 0
 804 63 796 20 796 20 c 1
 218 23 l 1
 122 0 l 25
 122 0 17 111 17 113 c 0
 17 115 50 762 50 762 c 5
EndSplineSet
Validated: 33
EndChar

StartChar: M
Encoding: 77 77 12
Width: 1024
VWidth: 0
Flags: HW
LayerCount: 2
Fore
SplineSet
400 23 m 29
 216 -39 l 29
 22 45 l 29
 22 45 60 250 60 248 c 4
 60 246 19 743 19 745 c 4
 19 747 75 795 75 795 c 29
 490 303 l 5
 525 307 l 5
 703 610 l 29
 871 784 l 5
 962 774 l 29
 861 168 l 29
 959 94 l 29
 951 -63 l 29
 617 -23 l 29
 595 18 l 5
 691 336 l 29
 519 207 l 5
 480 217 l 29
 341 375 l 29
 314 371 l 29
 314 371 433 88 435 86 c 4
 437 84 413 48 400 23 c 29
EndSplineSet
Validated: 37
EndChar

StartChar: N
Encoding: 78 78 13
Width: 1024
VWidth: 0
Flags: HW
LayerCount: 2
Fore
SplineSet
435 18 m 29
 435 18 99 -35 99 -31 c 4
 99 -27 42 39 42 39 c 29
 69 51 l 29
 22 694 l 29
 103 784 l 29
 157 784 l 29
 706 160 l 29
 732 164 l 29
 732 164 607 606 607 612 c 4
 607 618 585 778 585 778 c 29
 1011 799 l 29
 998 590 l 29
 962 586 l 29
 812 -12 l 29
 730 -25 l 29
 677 0 l 29
 298 487 l 29
 282 481 l 29
 374 178 l 29
 441 170 l 29
 435 18 l 29
EndSplineSet
Validated: 33
EndChar

StartChar: O
Encoding: 79 79 14
Width: 716
VWidth: 0
Flags: HW
LayerCount: 2
Fore
SplineSet
270 25 m 1
 248 33 l 1
 248 33 168 60 135 105 c 0
 83 176 34 306 34 308 c 4
 34 310 22 528 36 568 c 0
 51 611 146 754 181 779 c 0
 233 815 429 876 618 697 c 0
 624 691 703 521 687 406 c 24
 668 265 604 135 532 75 c 0
 465 20 391 13 270 25 c 1
204 236 m 24
 216 178 333 124 410 162 c 24
 505 209 542 247 567 416 c 0
 582 516 534 584 535 592 c 9
 535 592 399 706 343 646 c 0
 249 546 170 397 204 236 c 24
EndSplineSet
Validated: 33
EndChar

StartChar: P
Encoding: 80 80 15
Width: 1024
VWidth: 0
Flags: HW
LayerCount: 2
Fore
SplineSet
663 334 m 25
 773 393 l 25
 728 539 l 25
 597 555 l 25
 663 334 l 25
493 55 m 1
 400 -39 l 0
 97 -45 l 0
 22 37 l 25
 79 455 l 1
 0 682 l 25
 50 805 l 1
 740 795 l 1
 976 551 l 1
 908 168 l 1
 632 150 l 25
 368 252 l 25
 368 252 380 213 378 213 c 0
 376 213 493 55 493 55 c 1
EndSplineSet
Validated: 33
EndChar

StartChar: Q
Encoding: 81 81 16
Width: 912
VWidth: 0
Flags: HW
LayerCount: 2
Fore
SplineSet
63 680 m 24
 158 806 444 815 444 815 c 1
 751 778 l 0
 751 778 906 480 905 274 c 0
 905 175 723 109 723 109 c 25
 792 10 l 0
 674 -47 l 25
 592 86 l 25
 450 -10 l 25
 178 8 l 0
 26 262 l 1
 26 262 -35 550 63 680 c 24
702 637 m 9
 702 637 367 681 219 561 c 24
 107 471 157 199 157 199 c 0
 416 102 l 25
 547 145 l 0
 450 289 l 25
 620 338 l 0
 659 250 l 1
 774 262 l 0
 702 637 l 9
EndSplineSet
Validated: 33
EndChar

StartChar: R
Encoding: 82 82 17
Width: 1024
VWidth: 0
Flags: HW
LayerCount: 2
Fore
SplineSet
513 471 m 1
 513 471 665 471 669 471 c 0
 673 471 708 596 710 598 c 0
 712 600 597 668 597 668 c 25
 527 600 l 25
 513 471 l 1
132 428 m 1
 77 719 l 5
 417 807 l 1
 417 807 814 760 828 758 c 0
 842 756 964 459 966 459 c 0
 968 459 888 387 888 387 c 1
 568 340 l 1
 861 299 l 1
 998 96 l 1
 998 96 857 0 855 0 c 0
 853 0 603 14 603 18 c 0
 603 22 468 315 468 315 c 1
 390 385 l 1
 370 334 l 1
 370 334 417 38 415 37 c 0
 402 29 81 18 81 18 c 0
 67 12 13 410 13 410 c 25
 132 428 l 1
EndSplineSet
Validated: 33
EndChar

StartChar: S
Encoding: 83 83 18
Width: 1024
VWidth: 0
Flags: HW
LayerCount: 2
Fore
SplineSet
755 399 m 29
 702 436 624 492 619 494 c 4
 614 496 609 627 609 627 c 29
 466 614 l 29
 456 514 l 29
 829 270 l 29
 815 94 l 29
 332 -8 l 29
 332 -8 66 29 64 29 c 4
 62 29 62 285 62 285 c 29
 155 426 l 29
 322 346 l 29
 461 154 l 29
 638 180 l 29
 648 238 l 29
 144 543 l 29
 155 647 l 29
 633 803 l 29
 865 760 l 29
 865 760 920 579 920 571 c 4
 920 563 755 399 755 399 c 29
EndSplineSet
Validated: 1
EndChar

StartChar: T
Encoding: 84 84 19
Width: 1024
VWidth: 0
Flags: HW
LayerCount: 2
Fore
SplineSet
194 760 m 5
 796 799 l 29
 843 807 l 29
 843 807 1013 750 1013 748 c 4
 1013 746 894 403 894 403 c 29
 644 526 l 29
 644 526 570 526 566 522 c 4
 562 518 577 221 577 215 c 4
 577 209 636 55 636 55 c 29
 611 0 l 29
 294 0 l 29
 300 166 l 29
 300 166 347 166 343 166 c 4
 339 166 435 526 435 526 c 29
 253 514 l 29
 220 418 l 29
 62 434 l 29
 62 434 36 565 38 567 c 4
 40 569 194 760 194 760 c 5
EndSplineSet
Validated: 37
EndChar

StartChar: U
Encoding: 85 85 20
Width: 1024
VWidth: 0
Flags: HW
LayerCount: 2
Fore
SplineSet
202 821 m 25
 443 698 l 25
 443 698 398 385 396 385 c 0
 394 385 355 377 355 377 c 1
 343 145 l 1
 529 90 l 1
 529 90 646 154 646 162 c 0
 646 170 639 721 639 721 c 1
 842 817 l 25
 990 729 l 25
 988 334 l 1
 716 16 l 25
 300 14 l 25
 42 262 l 1
 77 588 l 25
 38 653 l 25
 202 821 l 25
EndSplineSet
Validated: 1
EndChar

StartChar: V
Encoding: 86 86 21
Width: 1024
VWidth: 0
Flags: HW
LayerCount: 2
Fore
SplineSet
255 780 m 1
 339 762 l 1
 435 439 l 25
 349 299 l 1
 349 299 476 148 478 144 c 0
 480 140 591 303 591 303 c 1
 548 419 l 29
 529 782 l 1
 529 782 734 813 738 813 c 0
 742 813 992 637 992 637 c 25
 503 10 l 25
 431 18 l 25
 83 520 l 25
 46 520 l 25
 46 520 17 616 15 618 c 0
 13 620 255 780 255 780 c 1
EndSplineSet
Validated: 33
EndChar

StartChar: W
Encoding: 87 87 22
Width: 1024
VWidth: 0
Flags: HW
LayerCount: 2
Fore
SplineSet
136 780 m 5
 249 754 l 29
 359 426 l 29
 269 221 l 29
 269 221 298 184 298 182 c 4
 298 180 439 485 439 485 c 29
 482 489 l 29
 679 154 l 29
 697 174 l 29
 605 412 l 29
 667 807 l 29
 849 809 l 29
 1011 567 l 29
 699 0 l 29
 439 231 l 29
 292 25 l 29
 108 328 l 29
 75 338 l 29
 0 557 l 29
 136 780 l 5
EndSplineSet
Validated: 33
EndChar

StartChar: X
Encoding: 88 88 23
Width: 1024
VWidth: 0
Flags: HW
LayerCount: 2
Fore
SplineSet
499 391 m 25
 556 440 l 25
 511 567 l 25
 845 780 l 25
 994 621 l 25
 939 440 l 25
 570 330 l 25
 949 174 l 25
 896 10 l 25
 654 0 l 25
 669 59 l 25
 527 287 l 25
 267 111 l 25
 273 0 l 25
 110 10 l 25
 0 186 l 25
 382 362 l 25
 294 432 l 25
 73 473 l 25
 0 786 l 25
 87 791 l 25
 376 696 l 25
 470 461 l 25
 456 399 l 25
 499 391 l 25
EndSplineSet
Validated: 1
EndChar

StartChar: Y
Encoding: 89 89 24
Width: 995
VWidth: 0
Flags: HW
LayerCount: 2
Fore
SplineSet
247 782 m 1
 40 651 l 25
 108 487 l 25
 316 475 l 25
 433 178 l 25
 423 33 l 1
 699 14 l 25
 640 197 l 1
 609 340 l 1
 949 731 l 1
 712 817 l 1
 583 786 l 1
 517 547 l 25
 556 449 l 25
 505 397 l 25
 335 780 l 25
 247 782 l 1
EndSplineSet
Validated: 9
EndChar

StartChar: exclam
Encoding: 33 33 26
Width: 681
VWidth: 0
Flags: HW
LayerCount: 2
Fore
SplineSet
136 770 m 25
 462 782 l 25
 583 655 l 25
 415 246 l 25
 327 203 l 25
 331 174 l 25
 331 174 456 111 454 111 c 0
 452 111 429 27 427 25 c 0
 425 23 183 10 183 10 c 25
 114 115 l 25
 173 170 l 25
 292 174 l 25
 298 209 l 25
 224 231 l 25
 136 770 l 25
EndSplineSet
Validated: 33
EndChar

StartChar: quotedbl
Encoding: 34 34 27
Width: 1024
VWidth: 0
Flags: HW
LayerCount: 2
Fore
SplineSet
249 502 m 5
 220 573 l 29
 380 743 l 29
 380 743 480 733 480 731 c 4
 480 729 488 666 488 666 c 29
 249 502 l 5
77 555 m 1
 48 627 l 25
 208 797 l 25
 208 797 308 786 308 784 c 0
 308 782 316 719 316 719 c 25
 77 555 l 1
EndSplineSet
Validated: 1
EndChar

StartChar: numbersign
Encoding: 35 35 28
Width: 871
VWidth: 0
Flags: HW
LayerCount: 2
Fore
SplineSet
235 119 m 25
 278 153 l 1
 424 690 l 25
 342 700 l 1
 184 172 l 25
 235 119 l 25
376 67 m 25
 420 102 l 1
 566 638 l 25
 484 649 l 1
 325 121 l 25
 376 67 l 25
76 458 m 25
 122 428 l 1
 726 426 l 25
 718 501 l 1
 120 516 l 25
 76 458 l 25
55 320 m 25
 101 290 l 1
 706 287 l 25
 698 363 l 1
 100 378 l 25
 55 320 l 25
EndSplineSet
Validated: 5
EndChar

StartChar: dollar
Encoding: 36 36 29
Width: 870
VWidth: 0
Flags: HW
LayerCount: 2
Fore
SplineSet
360 765 m 1
 441 816 l 1
 530 834 l 5
 530 834 446 -26 430 -39 c 0
 406 -59 384 -60 368 -28 c 0
 351 4 360 765 360 765 c 1
697 416 m 0
 714 561 541 594 541 594 c 1
 457 602 l 0
 245 582 l 1
 245 582 208 557 209 500 c 0
 210 442 248 438 248 436 c 0
 248 434 463 447 463 447 c 1
 463 447 660 421 706 334 c 0
 747 256 763 158 725 99 c 0
 675 21 234 49 194 60 c 0
 72 94 44 210 44 210 c 1
 39 313 l 25
 39 313 227 249 263 231 c 0
 296 215 276 147 276 147 c 1
 276 147 639 130 647 150 c 0
 656 173 606 290 532 324 c 24
 393 387 146 381 146 381 c 1
 67 628 l 1
 163 696 l 1
 558 707 l 1
 800 658 l 1
 842 489 l 1
 842 489 692 376 697 416 c 0
EndSplineSet
Validated: 37
EndChar

StartChar: percent
Encoding: 37 37 30
Width: 1024
VWidth: 0
Flags: HW
LayerCount: 2
Fore
SplineSet
712 743 m 5
 759 738 l 29
 759 738 746 667 746 665 c 4
 746 663 311 82 311 82 c 29
 311 82 227 120 210 129 c 4
 193 138 182 270 177 275 c 4
 172 280 712 743 712 743 c 5
571 335 m 5
 571 335 746 349 744 349 c 4
 742 349 727 235 727 235 c 29
 727 235 659 180 657 180 c 4
 655 180 585 206 578 208 c 4
 571 210 571 335 571 335 c 5
213 657 m 5
 213 657 388 671 386 671 c 4
 384 671 370 557 370 557 c 29
 370 557 301 502 299 502 c 4
 297 502 227 528 220 530 c 4
 213 532 213 657 213 657 c 5
EndSplineSet
Validated: 37
EndChar

StartChar: ampersand
Encoding: 38 38 31
Width: 956
VWidth: 0
Flags: HW
LayerCount: 2
Fore
SplineSet
623 431 m 5
 731 461 l 29
 530 78 l 5
 131 96 l 29
 178 315 l 5
 497 493 l 5
 547 611 l 5
 547 611 519 677 516 677 c 4
 513 677 298 629 298 629 c 5
 292 516 l 29
 584 255 l 5
 709 194 l 5
 812 315 l 5
 777 141 l 5
 653 96 l 29
 404 312 l 5
 404 312 181 528 178 533 c 4
 175 538 239 707 239 709 c 4
 239 711 640 725 640 725 c 5
 640 725 718 654 715 650 c 4
 712 646 516 465 514 463 c 4
 512 461 270 303 270 303 c 5
 264 174 l 29
 452 149 l 29
 623 431 l 5
EndSplineSet
Validated: 37
EndChar

StartChar: quotesingle
Encoding: 39 39 32
Width: 505
VWidth: 0
Flags: HW
LayerCount: 2
Fore
SplineSet
105 786 m 0
 152 873 288 793 328 749 c 0
 369 703 378 643 345 588 c 0
 307 523 265 506 188 471 c 0
 168 462 125 458 142 472 c 0
 184 505 338 663 238 638 c 0
 31 587 105 786 105 786 c 0
EndSplineSet
Validated: 33
EndChar

StartChar: parenleft
Encoding: 40 40 33
Width: 637
VWidth: 0
Flags: HW
LayerCount: 2
Fore
SplineSet
364 768 m 24
 412 796 509 770 509 768 c 0
 509 766 330 674 241 586 c 24
 183 529 142 486 140 406 c 24
 137 308 153 234 229 169 c 24
 312 99 503 101 503 99 c 0
 503 97 487 33 453 31 c 24
 363 26 303 34 228 83 c 24
 149 134 92 265 82 272 c 0
 63 285 32 433 80 517 c 24
 152 644 236 693 364 768 c 24
EndSplineSet
Validated: 33
EndChar

StartChar: parenright
Encoding: 41 41 34
Width: 585
VWidth: 0
Flags: HW
LayerCount: 2
Fore
SplineSet
285 788 m 28
 399 711 474 661 539 529 c 28
 582 440 554 284 537 270 c 4
 529 263 477 121 406 65 c 28
 340 13 285 3 205 9 c 28
 175 11 160 80 160 82 c 4
 160 84 330 82 404 156 c 28
 472 225 486 302 484 406 c 28
 482 491 445 536 394 596 c 28
 314 689 155 786 155 788 c 4
 155 790 242 818 285 788 c 28
EndSplineSet
Validated: 33
EndChar

StartChar: asterisk
Encoding: 42 42 35
Width: 612
VWidth: 0
Flags: HW
LayerCount: 2
Fore
SplineSet
253 640 m 25
 336 601 l 25
 341 422 l 25
 457 564 l 25
 493 566 l 25
 500 538 l 25
 373 394 l 25
 515 396 l 25
 554 346 l 25
 514 316 l 25
 348 314 l 25
 491 201 l 25
 491 201 482 178 484 176 c 0
 486 174 320 288 320 288 c 25
 320 288 322 109 322 107 c 0
 322 105 293 102 293 102 c 25
 246 111 l 25
 242 307 l 25
 160 175 l 25
 151 191 l 25
 223 339 l 25
 223 339 66 307 66 305 c 0
 66 303 35 402 35 402 c 25
 72 432 l 25
 235 413 l 25
 91 564 l 25
 119 575 l 25
 249 432 l 25
 232 588 l 25
 253 640 l 25
EndSplineSet
Validated: 33
EndChar

StartChar: plus
Encoding: 43 43 36
Width: 741
VWidth: 0
Flags: HW
LayerCount: 2
Fore
SplineSet
298 571 m 25
 468 575 l 25
 476 371 l 25
 476 371 658 369 660 369 c 0
 662 369 660 203 660 203 c 25
 482 217 l 25
 484 72 l 25
 484 72 310 61 308 61 c 0
 306 61 308 223 308 223 c 25
 110 217 l 25
 105 375 l 25
 304 379 l 25
 298 571 l 25
EndSplineSet
Validated: 33
EndChar

StartChar: comma
Encoding: 44 44 37
Width: 429
VWidth: 0
Flags: HW
LayerCount: 2
Fore
SplineSet
123 201 m 0
 129 238 190 263 230 251 c 0
 276 237 313 212 321 157 c 0
 334 69 295 23 293 22 c 0
 291 21 197 -31 131 -40 c 0
 114 -42 56 -49 71 -38 c 0
 123 0 173 45 174 46 c 0
 228 109 189 127 186 128 c 0
 183 129 108 114 123 201 c 0
EndSplineSet
Validated: 33
EndChar

StartChar: hyphen
Encoding: 45 45 38
Width: 741
VWidth: 0
Flags: HW
LayerCount: 2
Fore
SplineSet
304 379 m 1
 105 375 l 1
 105 375 58 239 97 234 c 4
 151 227 496 236 496 236 c 5
 674 221 l 5
 674 221 676 337 635 368 c 0
 603 392 322 376 304 379 c 1
EndSplineSet
Validated: 41
EndChar

StartChar: period
Encoding: 46 46 39
Width: 464
VWidth: 0
Flags: HW
LayerCount: 2
Fore
SplineSet
128 116 m 0
 137 153 173 178 246 173 c 0
 300 169 313 154 323 134 c 0
 327 126 339 93 333 73 c 0
 318 26 308 -12 266 -31 c 24
 227 -48 162 -4 162 -3 c 0
 162 -2 117 69 128 116 c 0
EndSplineSet
Validated: 33
EndChar

StartChar: Z
Encoding: 90 90 40
Width: 1010
VWidth: 0
Flags: HW
LayerCount: 2
Fore
SplineSet
124 449 m 25
 24 569 l 25
 57 825 l 25
 877 750 l 1
 909 682 l 25
 391 242 l 25
 387 188 l 25
 677 176 l 25
 703 276 l 25
 1002 309 l 25
 953 68 l 25
 906 10 l 25
 172 47 l 1
 59 176 l 25
 72 256 l 29
 735 631 l 25
 709 662 l 1
 364 637 l 25
 349 532 l 25
 124 449 l 25
EndSplineSet
Validated: 1
EndChar

StartChar: slash
Encoding: 47 47 41
Width: 710
VWidth: 0
Flags: HW
LayerCount: 2
Fore
SplineSet
487 797 m 1
 521 801 l 1
 521 801 574 787 575 787 c 0
 576 787 321 93 321 93 c 25
 321 93 206 14 205 14 c 0
 204 14 151 74 151 74 c 25
 158 179 l 1
 487 797 l 1
EndSplineSet
Validated: 33
EndChar

StartChar: backslash
Encoding: 92 92 42
Width: 669
VWidth: 0
Flags: HW
LayerCount: 2
Fore
SplineSet
450 17 m 1
 121 635 l 1
 114 740 l 25
 114 740 167 800 168 800 c 0
 169 800 284 721 284 721 c 25
 284 721 539 27 538 27 c 0
 537 27 484 13 484 13 c 1
 450 17 l 1
EndSplineSet
Validated: 33
EndChar

StartChar: colon
Encoding: 58 58 43
Width: 507
VWidth: 0
Flags: HW
LayerCount: 2
Fore
SplineSet
142 363 m 1
 142 363 174 430 179 433 c 0
 184 436 288 456 289 455 c 0
 290 454 324 429 324 429 c 25
 316 328 l 25
 316 328 222 298 221 299 c 0
 220 300 142 363 142 363 c 1
139 136 m 1
 139 136 206 181 211 181 c 0
 216 181 320 143 320 142 c 0
 320 141 337 100 337 100 c 25
 273 14 l 25
 273 14 172 36 172 37 c 0
 172 38 139 136 139 136 c 1
EndSplineSet
Validated: 33
EndChar

StartChar: semicolon
Encoding: 59 59 44
Width: 563
VWidth: 0
Flags: HW
LayerCount: 2
Fore
SplineSet
189 348 m 5
 189 348 221 416 225 419 c 4
 229 422 330 441 331 440 c 4
 332 439 365 414 365 414 c 29
 358 313 l 29
 358 313 266 283 265 284 c 4
 264 285 189 348 189 348 c 5
250 51 m 5
 250 51 225 134 230 134 c 4
 232 134 263 178 263 178 c 5
 270 179 338 204 338 203 c 4
 338 202 378 84 378 84 c 5
 316 -3 l 5
 316 -3 164 -55 164 -54 c 4
 164 -53 250 51 250 51 c 5
EndSplineSet
Validated: 33
EndChar

StartChar: less
Encoding: 60 60 45
Width: 987
VWidth: 0
Flags: HW
LayerCount: 2
Fore
SplineSet
565 770 m 1
 737 827 l 25
 734 648 l 1
 613 632 l 25
 214 377 l 25
 742 106 l 25
 695 -9 l 25
 618 3 l 25
 105 377 l 25
 565 770 l 1
EndSplineSet
Validated: 1
EndChar

StartChar: greater
Encoding: 62 62 46
Width: 987
VWidth: 0
Flags: HW
LayerCount: 2
Fore
SplineSet
398 764 m 1
 225 821 l 25
 228 642 l 1
 350 626 l 25
 748 371 l 25
 220 99 l 25
 267 -15 l 25
 345 -3 l 25
 857 371 l 25
 398 764 l 1
EndSplineSet
Validated: 9
EndChar

StartChar: question
Encoding: 63 63 47
Width: 1015
VWidth: 0
Flags: HW
LayerCount: 2
Fore
SplineSet
376 387 m 1
 216 381 l 1
 130 514 l 1
 130 514 120 688 122 690 c 0
 124 692 447 793 447 793 c 1
 447 793 804 770 808 766 c 0
 812 762 927 637 927 631 c 0
 927 625 855 373 851 369 c 0
 847 365 591 248 591 248 c 25
 525 76 l 25
 521 47 l 25
 462 31 l 25
 527 0 l 25
 525 -59 l 25
 447 -100 l 25
 447 -100 368 -94 366 -90 c 0
 364 -86 345 20 345 20 c 25
 402 51 l 25
 443 37 l 25
 468 72 l 25
 380 139 l 25
 431 256 l 25
 431 256 510 295 550 334 c 28
 640 421 761 575 761 575 c 25
 761 575 585 713 583 713 c 0
 581 713 427 682 427 682 c 25
 359 594 l 1
 359 594 428 557 433 490 c 24
 438 429 376 387 376 387 c 1
EndSplineSet
Validated: 33
EndChar

StartChar: at
Encoding: 64 64 48
Width: 624
VWidth: 0
Flags: HW
LayerCount: 2
Fore
SplineSet
185 586 m 0
 185 587 315 648 473 550 c 0
 521 520 504 414 504 413 c 0
 504 412 424 385 373 368 c 24
 358 363 349 359 333 356 c 24
 289 348 250 374 218 343 c 24
 188 314 194 276 210 238 c 24
 224 206 250 183 285 187 c 24
 324 192 348 218 356 255 c 0
 364 290 309 269 315 304 c 24
 319 325 360 366 373 349 c 0
 403 311 415 276 402 230 c 24
 388 185 360 152 312 144 c 24
 254 135 201 145 170 194 c 24
 134 251 161 346 172 366 c 0
 183 386 271 417 340 424 c 24
 358 426 344 383 362 385 c 24
 386 388 407 408 403 432 c 24
 398 465 378 489 344 496 c 24
 288 508 249 501 198 476 c 24
 151 453 117 431 106 381 c 24
 90 304 85 242 137 181 c 24
 197 111 319 71 359 88 c 0
 382 98 424 255 501 336 c 24
 524 360 555 339 586 328 c 24
 601 323 617 308 608 296 c 0
 530 191 408 46 363 32 c 0
 290 9 165 75 105 117 c 0
 58 149 0 230 29 376 c 0
 49 477 185 585 185 586 c 0
EndSplineSet
Validated: 33
EndChar

StartChar: equal
Encoding: 61 61 49
Width: 1024
VWidth: 0
Flags: HW
LayerCount: 2
Fore
SplineSet
251 272 m 1
 251 272 788 279 794 279 c 0
 800 279 796 178 796 178 c 1
 581 184 l 1
 241 180 l 1
 251 272 l 1
241 449 m 1
 241 449 777 455 783 455 c 0
 789 455 753 367 753 367 c 1
 581 332 l 25
 230 356 l 25
 241 449 l 1
EndSplineSet
Validated: 33
EndChar

StartChar: bracketleft
Encoding: 91 91 50
Width: 661
VWidth: 0
Flags: HW
LayerCount: 2
Fore
SplineSet
524 792 m 29
 524 792 514 647 512 647 c 4
 510 647 292 666 292 666 c 5
 320 129 l 5
 573 136 l 29
 573 136 575 44 573 42 c 4
 571 40 148 10 148 10 c 5
 148 10 134 119 134 121 c 4
 134 123 145 161 145 161 c 29
 145 161 160 634 162 636 c 4
 164 638 140 681 140 681 c 29
 135 794 l 5
 524 792 l 29
EndSplineSet
Validated: 33
EndChar

StartChar: bracketright
Encoding: 93 93 51
Width: 661
VWidth: 0
Flags: HW
LayerCount: 2
Fore
SplineSet
113 793 m 25
 502 795 l 1
 498 682 l 25
 498 682 474 639 476 637 c 0
 478 635 493 162 493 162 c 25
 493 162 504 124 504 122 c 0
 504 120 490 11 490 11 c 1
 490 11 66 41 64 43 c 0
 62 45 64 137 64 137 c 25
 317 130 l 1
 346 667 l 1
 346 667 128 648 126 648 c 0
 124 648 113 793 113 793 c 25
EndSplineSet
Validated: 33
EndChar

StartChar: a
Encoding: 97 97 52
Width: 1024
VWidth: 0
Flags: HW
LayerCount: 2
Fore
SplineSet
585 588 m 24
 640 562 584 432 584 432 c 0
 441 500 l 1
 441 500 526 616 585 588 c 24
468 797 m 1
 425 784 l 1
 425 784 128 599 50 406 c 24
 -2 278 130 61 130 59 c 0
 130 57 278 12 278 12 c 25
 470 125 l 25
 366 289 l 25
 366 289 364 414 421 440 c 28
 476 465 562 375 562 375 c 25
 511 139 l 25
 663 14 l 25
 839 12 l 25
 839 12 991 271 980 449 c 24
 971 601 792 788 792 788 c 1
 468 797 l 1
EndSplineSet
Validated: 41
EndChar

StartChar: b
Encoding: 98 98 53
Width: 1024
VWidth: 0
Flags: HW
LayerCount: 2
Fore
SplineSet
707 243 m 1
 707 243 655 282 617 298 c 4
 331 416 405 200 405 200 c 25
 405 200 429 160 431 160 c 0
 433 160 709 139 709 145 c 0
 709 151 707 243 707 243 c 1
666 429 m 28
 721 425 761 533 761 533 c 25
 666 614 l 25
 569 547 l 25
 569 547 606 434 666 429 c 28
136 778 m 1
 268 721 l 1
 328 776 l 1
 730 790 l 1
 730 790 927 699 956 584 c 24
 978 494 833 383 833 383 c 1
 833 383 963 267 961 267 c 0
 959 267 1010 104 939 28 c 0
 908 -6 628 -8 569 5 c 1
 232 62 l 1
 232 62 137 23 136 22 c 0
 134 20 82 269 82 269 c 1
 136 778 l 1
EndSplineSet
Validated: 33
EndChar

StartChar: c
Encoding: 99 99 54
Width: 927
VWidth: 0
Flags: HW
LayerCount: 2
Fore
SplineSet
391 788 m 0
 477 836 643 799 643 799 c 25
 938 682 l 25
 938 682 921 509 838 487 c 24
 693 449 461 559 459 557 c 0
 457 555 241.947540744 515.02068035 199 406 c 0
 160 307 209 202 250 174 c 0
 291.495985778 145.661278005 363 131 430 154 c 28
 527 187 642 308 642 308 c 25
 642 308 844.066412195 189.248577384 908 166 c 0
 952 150 806.041968411 15.8939957856 791 10 c 0
 546 -86 143 0 127 0 c 0
 111 0 -30 269 26 436 c 24
 96 646 197.118164062 679.787109375 391 788 c 0
EndSplineSet
Validated: 524321
EndChar

StartChar: e
Encoding: 101 101 55
Width: 1024
VWidth: 0
Flags: HW
LayerCount: 2
Fore
SplineSet
670 313 m 28
 628 201 370 248 370 248 c 1
 394 186 l 25
 863 281 l 1
 863 281 988 288 1000 233 c 24
 1022 140 927 0 927 0 c 1
 927 0 428 -5 118 55 c 24
 64 65 36 170 36 172 c 0
 36 174 286 344 286 344 c 1
 93 426 l 1
 73 563 l 1
 97 696 l 1
 97 696 163 785 224 788 c 24
 280 791 347 711 347 711 c 1
 490 776 l 1
 1006 739 l 25
 964 636 904 476 899 476 c 0
 894 476 832 499 789 515 c 25
 613 594 l 1
 398 575 l 1
 435 422 l 1
 435 422 706 407 670 313 c 28
EndSplineSet
Validated: 33
EndChar

StartChar: d
Encoding: 100 100 56
Width: 1024
VWidth: 0
Flags: HW
LayerCount: 2
Fore
SplineSet
669 178 m 1
 669 178 779 172 783 176 c 0
 787 180 782 410 744 446 c 0
 708 480 646 503 617 462 c 24
 567 391 600 244 600 242 c 0
 600 240 669 178 669 178 c 1
63 687 m 25
 246 774 l 25
 246 774 283 702 285 700 c 0
 287 698 382.890610651 750.873124593 450 768 c 4
 642 817 793.801068299 779.465558801 882 688 c 0
 990 576 1005 463 1005 463 c 5
 1005 463 1058.82767748 130.266630494 921 41 c 0
 728 -84 296 39 294 49 c 0
 292 59 249 158 249 158 c 1
 232 131 l 1
 232 131 195 41 193 41 c 0
 191 41 86 31 86 41 c 0
 86 51 72 435 63 687 c 25
EndSplineSet
Validated: 524321
EndChar

StartChar: f
Encoding: 102 102 57
Width: 1024
VWidth: 0
Flags: HW
LayerCount: 2
Fore
SplineSet
116 510 m 1
 155 750 l 25
 155 750 230 758 234 758 c 0
 238 758 291 698 291 698 c 25
 291 698 343 758 389 764 c 24
 581 792 880 784 884 784 c 0
 888 784 971 563 971 563 c 25
 971 563 901 503 848 508 c 24
 786 514 711 590 711 590 c 25
 374 580 l 25
 403 471 l 1
 633 475 l 25
 633 475 657 381 657 379 c 0
 657 377 603 312 555 307 c 28
 494 300 403 350 403 350 c 1
 420 219 l 1
 420 219 462 55 392 12 c 24
 306 -41 134 41 134 41 c 1
 116 510 l 1
EndSplineSet
Validated: 33
EndChar

StartChar: g
Encoding: 103 103 58
Width: 1024
VWidth: 0
Flags: HW
LayerCount: 2
Fore
SplineSet
916 555 m 1
 665 485 l 25
 585 518 l 25
 269 444 l 25
 366 154 l 25
 683 96 l 25
 742 221 l 25
 660 209 l 25
 648 158 l 25
 419 178 l 25
 419 178 380 273 458 377 c 4
 465 386 623 428 816 377 c 4
 832 373 941 238 939 236 c 0
 937 234 858 55 753 20 c 24
 571 -39 261 14 261 14 c 25
 261 14 65 173 19 317 c 0
 -23 449 87 698 87 698 c 25
 87 698 186 776 583 782 c 0
 589 782 974 715 974 715 c 29
 916 555 l 1
EndSplineSet
Validated: 33
EndChar

StartChar: h
Encoding: 104 104 59
Width: 1024
VWidth: 0
Flags: HW
LayerCount: 2
Fore
SplineSet
83 748 m 24
 156 825 345 676 345 676 c 1
 378 504 l 25
 341 475 l 25
 346 467 353 457 355 455 c 0
 357 453 525 462 634 467 c 29
 640 501 643 481 651 554 c 4
 658 619 611 676 658 721 c 28
 734 794 913 808 915 808 c 4
 917 808 967 706 969 704 c 4
 971 702 1010 287 900 58 c 28
 858 -29 750 50 653 45 c 29
 634 79 606 127 606 135 c 4
 606 143 614 321 612 323 c 4
 610 325 368 315 368 315 c 1
 302 61 l 25
 243 25 l 25
 165 33 42 45 44 45 c 0
 46 45 37 186 32 276 c 25
 77 307 l 25
 48 365 l 25
 61 515 -20 639 83 748 c 24
EndSplineSet
Validated: 33
EndChar

StartChar: i
Encoding: 105 105 60
Width: 670
VWidth: 0
Flags: HW
LayerCount: 2
Fore
SplineSet
173 786 m 0
 354 763 560 803 562 803 c 0
 564 803 574 702 574 702 c 1
 544 670 l 25
 494 655 l 1
 510 147 l 1
 550 164 l 25
 550 164 608 148 617 117 c 24
 628 79 595 18 595 18 c 1
 98 16 l 1
 98 16 72 66 72 70 c 0
 72 74 87 117 113 131 c 0
 131 141 212 125 212 125 c 1
 243 618 l 1
 128 623 l 1
 128 623 75 798 173 786 c 0
EndSplineSet
Validated: 33
EndChar

StartChar: j
Encoding: 106 106 61
Width: 841
VWidth: 0
Flags: HW
LayerCount: 2
Fore
SplineSet
179 727 m 1
 179 727 233 760 271 762 c 24
 535 774 814 764 812 762 c 0
 810 760 809 674 773 637 c 24
 751 614 693 639 693 639 c 25
 693 639 760 268 650 78 c 24
 588 -31 335 16 335 16 c 1
 181 55 l 25
 181 55 53 80 36 145 c 24
 9 246 85 406 87 410 c 0
 89 414 226 390 226 390 c 1
 226 390 217 330 217 328 c 0
 209 184 39 239 353 191 c 0
 529 164 590 445 590 445 c 1
 590 445 594 646 592 646 c 0
 590 646 339 618 339 618 c 1
 285 571 l 25
 219 588 l 25
 179 727 l 1
EndSplineSet
Validated: 33
EndChar

StartChar: k
Encoding: 107 107 62
Width: 1024
VWidth: 0
Flags: HW
LayerCount: 2
Fore
SplineSet
137 432 m 28
 140 536 29 690 29 690 c 1
 131 774 l 25
 352 778 l 25
 352 778 397 711 393 664 c 24
 382 549 301 367 313 379 c 0
 325 391 700 770 702 772 c 0
 704 774 925 801 1005 711 c 24
 1060 649 938 508 938 508 c 1
 649 461 l 25
 481 346 l 1
 752 362 l 1
 752 362 950 280 905 102 c 0
 898 74 836 14 836 14 c 1
 836 14 549 2 549 8 c 0
 549 14 403 311 403 311 c 25
 362 305 l 25
 358 27 l 25
 305 16 l 25
 96 57 l 25
 23 10 l 25
 8 27 l 1
 8 27 132 270 137 432 c 28
EndSplineSet
Validated: 33
EndChar

StartChar: l
Encoding: 108 108 63
Width: 1024
VWidth: 0
Flags: HW
LayerCount: 2
Fore
SplineSet
962 14 m 0
 267 23 l 1
 171 0 l 25
 171 0 67 111 67 113 c 0
 67 115 16 522 99 762 c 24
 124 834 294 766 294 766 c 1
 317 746 l 25
 317 746 360 654 325 586 c 0
 307 550 224 567 224 567 c 25
 298 139 l 1
 277 148 798 69 587 166 c 0
 585 167 730 296 771 280 c 28
 927 217 962 14 962 14 c 0
EndSplineSet
Validated: 37
EndChar

StartChar: m
Encoding: 109 109 64
Width: 1024
VWidth: 0
Flags: HW
LayerCount: 2
Fore
SplineSet
400 23 m 25
 216 -39 l 25
 216 -39 62 -28 22 45 c 24
 -17 116 60 250 60 248 c 0
 60 246 19 743 19 745 c 0
 19 747 54 815 75 795 c 0
 258 623 426 668 426 668 c 1
 525 307 l 1
 682 725 l 25
 871 784 l 5
 893 788 1015 820 962 774 c 4
 781 617 861 168 861 168 c 25
 959 94 l 25
 959 94 1009 -44 951 -63 c 24
 827 -105 617 -23 617 -23 c 1
 473 16 l 1
 801 528 l 1
 519 207 l 1
 480 217 l 1
 279 426 l 1
 236 422 l 1
 236 422 433 88 435 86 c 0
 437 84 413 48 400 23 c 25
EndSplineSet
Validated: 37
EndChar

StartChar: n
Encoding: 110 110 65
Width: 1024
VWidth: 0
Flags: HW
LayerCount: 2
Fore
SplineSet
594 36 m 5
 594 36 92 59 92 63 c 4
 92 67 41 128 41 128 c 29
 65 139 l 29
 101 682 l 5
 174 766 l 5
 300 743 l 29
 710 185 l 5
 734 189 l 29
 734 189 623 600 623 606 c 4
 623 612 663 727 719 754 c 28
 866 824 982 779 982 779 c 5
 971 585 l 29
 938 581 l 5
 938 581 913 292 851 122 c 28
 829 62 732 13 732 13 c 5
 685 36 l 5
 685 36 597 271 499 389 c 28
 425 478 246 594 256 551 c 4
 291 404 415 202 415 202 c 5
 415 202 511 250 526 208 c 4
 548 148 594 36 594 36 c 5
EndSplineSet
Validated: 33
EndChar

StartChar: o
Encoding: 111 111 66
Width: 905
VWidth: 0
Flags: HW
LayerCount: 2
Fore
SplineSet
37 305 m 4
 32 347 49 525 124 604 c 4
 209 693 256 779 374 783 c 4
 550 789 801 640 805 631 c 4
 809 622 892 426 833 327 c 28
 731 157 440 22 440 22 c 5
 440 22 361 32 329 68 c 4
 309 91 324 125 335 153 c 4
 339 164 375 219 417 247 c 4
 432 257 408 215 463 232 c 4
 560 261 668 411 669 414 c 4
 670 417 711 506 678 559 c 28
 636 627 581 664 505 657 c 4
 420 649 349 579 306 500 c 4
 193 291 410 259 412 258 c 4
 414 257 345 205 324 152 c 4
 312 121 317 78 289 84 c 4
 175 108 120 151 80 191 c 4
 47 224 41 272 37 305 c 4
EndSplineSet
Validated: 33
EndChar

StartChar: p
Encoding: 112 112 67
Width: 1005
VWidth: 0
Flags: HW
LayerCount: 2
Fore
SplineSet
549 310 m 25
 549 310 635 322 649 365 c 24
 666 416 608 497 608 497 c 25
 608 497 504 557 490 512 c 24
 465 434 549 310 549 310 c 25
488 97 m 1
 405 12 l 0
 131 6 l 0
 62 80 l 25
 62 80 119 311 114 461 c 24
 111 547 43 668 43 668 c 25
 88 779 l 1
 88 779 478 835 713 770 c 24
 828 738 926 548 926 548 c 1
 926 548 954 304 865 200 c 24
 801 125 614 183 614 183 c 25
 375 276 l 25
 375 276 387 241 385 241 c 0
 383 241 488 97 488 97 c 1
EndSplineSet
Validated: 33
EndChar

StartChar: q
Encoding: 113 113 68
Width: 765
VWidth: 0
Flags: HW
LayerCount: 2
Fore
SplineSet
197 538 m 1
 143 479 153 384 197 269 c 0
 230 183 350 137 350 137 c 1
 426 158 l 0
 426 158 359 246 378 300 c 0
 397 356 511 343 511 343 c 0
 570 207 l 1
 631 276 l 0
 631 276 652 528 566 600 c 0
 385 751 197 538 197 538 c 1
449 792 m 0
 507 790 602 751 651 665 c 24
 722 539 740 470 734 292 c 0
 732 216 597 171 597 171 c 1
 645 56 l 0
 552 6 l 1
 449 115 l 25
 378 38 l 1
 378 38 235 5 165 55 c 24
 89 110 46 276 46 276 c 25
 46 276 12 517 75 641 c 0
 117 724 225 798 449 792 c 0
EndSplineSet
Validated: 33
EndChar

StartChar: s
Encoding: 115 115 69
Width: 1009
VWidth: 0
Flags: HW
LayerCount: 2
Fore
SplineSet
878 324 m 25
 825 361 624 492 619 494 c 0
 614 496 609 627 609 627 c 25
 466 614 l 25
 456 514 l 25
 829 270 l 1
 829 270 871 134 811 100 c 24
 643 6 332 -8 332 -8 c 1
 332 -8 62 35 60 35 c 0
 58 35 0 295 0 295 c 1
 0 295 90 411 155 426 c 0
 226 442 322 346 322 346 c 25
 461 154 l 25
 638 180 l 25
 648 238 l 25
 144 543 l 1
 144 543 121 626 151 653 c 0
 352 833 633 803 633 803 c 1
 750 699 828 789 861 766 c 0
 924 722 920 579 920 571 c 0
 920 563 878 324 878 324 c 25
EndSplineSet
Validated: 33
EndChar

StartChar: r
Encoding: 114 114 70
Width: 1024
VWidth: 0
Flags: HW
LayerCount: 2
Fore
SplineSet
486 471 m 1
 486 471 622 471 626 471 c 0
 630 471 661 595 663 597 c 0
 665 599 562 666 562 666 c 1
 562 666 478 658 461 613 c 24
 441 561 486 471 486 471 c 1
144 429 m 0
 165 541 50 630 116 719 c 0
 196 828 415 848 642 807 c 1
 642 807 817 771 861 729 c 4
 900 692 1000 604 897 457 c 4
 896 455 824 388 824 388 c 1
 824 388 603 402 615 350 c 0
 635 259 752 309 842 252 c 0
 917 205 923 100 923 100 c 1
 923 100 836 10 781 9 c 0
 597 6 571 23 555 27 c 0
 551 28 446 317 446 317 c 1
 446 317 499 399 374 435 c 0
 355 441 357 335 357 335 c 1
 357 335 400 42 398 41 c 0
 386 33 97 23 97 23 c 0
 85 18 19 258 37 410 c 24
 43 456 135 383 144 429 c 0
EndSplineSet
Validated: 33
EndChar

StartChar: t
Encoding: 116 116 71
Width: 968
VWidth: 0
Flags: HW
LayerCount: 2
Fore
SplineSet
169 745 m 24
 374 812 717 782 717 782 c 25
 760 790 l 25
 760 790 915 735 915 733 c 0
 915 731 918 470 807 399 c 0
 722 344 578 586 578 586 c 25
 578 586 511 586 507 582 c 0
 503 578 476 198 476 192 c 0
 476 186 606 63 606 63 c 1
 584 10 l 25
 261 8 l 1
 261 8 249 108 266 169 c 24
 271 185 309 169 305 169 c 0
 301 169 389 518 389 518 c 25
 389 518 281 537 223 506 c 24
 190 489 193 413 193 413 c 25
 50 429 l 25
 50 429 26 556 28 558 c 0
 30 560 85 717 169 745 c 24
EndSplineSet
Validated: 37
EndChar

StartChar: u
Encoding: 117 117 72
Width: 962
VWidth: 0
Flags: HW
LayerCount: 2
Fore
SplineSet
259 807 m 28
 358 800 462 647 462 647 c 29
 462 647 369 353 367 353 c 4
 365 353 328 352 328 352 c 5
 328 352 287 205 318 123 c 28
 343 54 441 45 441 45 c 5
 441 45 521 129 552 168 c 4
 847 541 540 646 555 687 c 5
 555 687 718 792 799 780 c 4
 862 770 922 669 922 669 c 29
 855 288 l 5
 855 288 698 70 550 29 c 28
 402 -12 217 12 217 12 c 5
 19 295 l 5
 105 603 l 29
 80 673 l 29
 80 673 173 813 259 807 c 28
EndSplineSet
Validated: 33
EndChar

StartChar: v
Encoding: 118 118 73
Width: 923
VWidth: 0
Flags: HW
LayerCount: 2
Fore
SplineSet
251 750 m 0
 278 763 380 702 393 674 c 0
 463 527 444 493 440 429 c 0
 437 377 389 263 389 263 c 0
 389 263 486 94 488 90 c 4
 490 86 604 343 623 429 c 0
 628 454 582 435 566 454 c 0
 537 487 433 598 495 752 c 0
 524 824 677 781 681 781 c 0
 685 781 970 500 865 522 c 0
 697 557 746 244 562 25 c 0
 546 6 424 6 408 26 c 0
 273 201 280 342 158 516 c 0
 136 547 38 536 38 536 c 1
 38 536 40 594 38 596 c 0
 36 598 159 707 251 750 c 0
EndSplineSet
Validated: 33
EndChar

StartChar: w
Encoding: 119 119 74
Width: 1024
VWidth: 0
Flags: HW
LayerCount: 2
Fore
SplineSet
136 780 m 1
 249 754 l 1
 301 637 l 1
 219 444 l 1
 219 444 313 180 313 178 c 0
 313 176 439 485 439 485 c 1
 439 485 507 522 535 489 c 28
 659 341 727 141 727 141 c 1
 745 162 l 1
 678 584 l 1
 771 793 l 1
 909 776 l 1
 1011 567 l 1
 1011 567 1114 170 699 0 c 0
 574 -51 439 231 439 231 c 25
 439 231 319 -70 292 25 c 0
 178 422 108 328 108 328 c 1
 18 406 l 25
 0 557 l 1
 136 780 l 1
EndSplineSet
Validated: 33
EndChar

StartChar: x
Encoding: 120 120 75
Width: 941
VWidth: 0
Flags: HW
LayerCount: 2
Fore
SplineSet
478 402 m 25
 534 441 l 25
 519 568 l 25
 519 568 701 728 831 722 c 24
 903 718 927 547 927 547 c 25
 850 383 l 25
 527 333 l 25
 527 333 738 252 813 128 c 24
 845 76 740 -21 740 -21 c 25
 539 6 l 1
 539 6 594 133 588 154 c 24
 557 271 449 343 449 343 c 1
 449 343 307 254 238 169 c 24
 213 137 259 80 224 63 c 24
 173 38 90 97 90 97 c 25
 90 97 -22 228 30 281 c 24
 135 390 377 392 377 392 c 1
 319 550 l 25
 319 550 224.0234375 718.510742188 140 544 c 0
 88 436 134 854 134 854 c 25
 207 845 l 25
 207 845 368 799 429 712 c 24
 480 639 466 473 466 473 c 25
 444 416 l 25
 478 402 l 25
EndSplineSet
Validated: 524321
EndChar

StartChar: y
Encoding: 121 121 76
Width: 995
VWidth: 0
Flags: HW
LayerCount: 2
Fore
SplineSet
247 782 m 5
 335 780 l 5
 512 336 l 5
 539 315 l 5
 565 526 l 5
 594 668 l 5
 712 817 l 5
 712 817 969 827 949 731 c 4
 907 533 604 367 604 367 c 5
 640 197 l 5
 640 197 679 92 621 45 c 28
 537 -24 343 49 343 49 c 5
 343 49 458 189 449 299 c 4
 428 546 313 579 240 467 c 5
 108 487 l 5
 108 487 10 589 40 651 c 28
 81 737 247 782 247 782 c 5
EndSplineSet
Validated: 33
EndChar

StartChar: z
Encoding: 122 122 77
Width: 979
VWidth: 0
Flags: HW
LayerCount: 2
Fore
SplineSet
217 393 m 25
 101 466 l 25
 83 556 -19 649 55 696 c 24
 291 847 855 785 855 785 c 1
 855 785 933 528 851 522 c 4
 619 505 385 210 385 210 c 1
 385 162 l 25
 482 165 544 135 635 171 c 24
 668 184 620 247 651 264 c 24
 741 312 806 296 905 315 c 25
 879 92 l 25
 843 37 l 25
 211 18 l 1
 211 18 134 74 105 127 c 24
 92 152 89 182 110 200 c 0
 310 368 535 403 691 615 c 24
 699 626 674 638 661 633 c 0
 583 604 357 627 357 627 c 1
 375 533 l 25
 217 393 l 25
EndSplineSet
Validated: 33
EndChar

StartChar: zero
Encoding: 48 48 78
Width: 681
VWidth: 0
Flags: HW
LayerCount: 2
Fore
SplineSet
489 830 m 1
 512 798 l 25
 410 489 l 1
 123 -53 l 29
 90 -56 l 5
 276 334 l 1
 489 830 l 1
502 255 m 24
 530 332 499 467 499 468 c 0
 499 469 427 556 423 557 c 0
 419 558 296 596 296 596 c 25
 296 596 184 543 182 541 c 0
 180 539 130 366 130 335 c 0
 130 304 196 139 224 131 c 0
 252 123 358 102 367 109 c 0
 376 116 474 180 502 255 c 24
339 725 m 25
 443 715 l 25
 640 440 l 25
 640 440 624 240 568 134 c 24
 530 63 422 25 413 11 c 0
 404 -3 242 42 242 42 c 25
 242 42 49 202 49 206 c 0
 49 210 30 446 98 568 c 24
 155 671 339 725 339 725 c 25
EndSplineSet
Validated: 37
EndChar

StartChar: one
Encoding: 49 49 79
Width: 538
VWidth: 0
Flags: HW
LayerCount: 2
Fore
SplineSet
87 507 m 1
 356 781 l 1
 356 781 483 781 465 748 c 0
 328 494 352 135 352 135 c 1
 390 86 l 25
 447 82 l 25
 449 12 l 1
 170 10 l 1
 173 74 l 1
 230 100 l 1
 207 539 l 1
 87 507 l 1
EndSplineSet
Validated: 33
EndChar

StartChar: two
Encoding: 50 50 80
Width: 774
VWidth: 0
Flags: HW
LayerCount: 2
Fore
SplineSet
305 640 m 1
 305 640 151 623 49 357 c 0
 39 331 53 492 53 492 c 1
 53 492 139 689 318 742 c 0
 528 804 721 668 721 668 c 1
 721 668 666 397 664 397 c 0
 662 397 281 141 265 141 c 0
 249 141 742 218 742 216 c 0
 742 214 756 43 756 43 c 1
 158 29 l 1
 60 144 l 1
 60 144 435 256 547 408 c 0
 656 555 498 631 498 631 c 1
 498 631 360 668 305 640 c 1
EndSplineSet
Validated: 37
EndChar

StartChar: three
Encoding: 51 51 81
Width: 831
VWidth: 0
Flags: HW
LayerCount: 2
Fore
SplineSet
100 507 m 1
 100 507 187 725 309 764 c 0
 439 806 621 802 755 719 c 24
 823 677 753 514 753 514 c 1
 608 391 l 1
 608 391 672 359 674 359 c 0
 676 359 777 304 778 249 c 0
 780 152 784 143 752 98 c 0
 719 52 591 17 487 33 c 24
 301 63 -38 214 37 213 c 0
 294 209 437 164 527 168 c 0
 690 176 689 205 657 270 c 0
 625 335 465 316 465 316 c 25
 465 316 600 474 600 476 c 0
 600 478 571 601 506 641 c 24
 446 677 325 645 323 643 c 0
 321 641 187 560 100 507 c 1
EndSplineSet
Validated: 33
EndChar

StartChar: four
Encoding: 52 52 82
Width: 739
VWidth: 0
Flags: HW
LayerCount: 2
Fore
SplineSet
466 350 m 1
 441 535 l 1
 236 352 l 1
 466 350 l 1
233 562 m 0
 327 683 579 831 579 831 c 1
 544 350 l 1
 619 350 l 1
 714 344 l 1
 716 291 l 1
 548 276 l 1
 609 4 l 1
 609 4 584 -22 582 -33 c 0
 580 -44 416 -13 416 -13 c 25
 416 -13 446 4 448 4 c 0
 450 4 445 254 445 254 c 1
 33 219 l 1
 33 219 139 441 233 562 c 0
EndSplineSet
Validated: 33
EndChar

StartChar: five
Encoding: 53 53 83
Width: 815
VWidth: 0
Flags: HW
LayerCount: 2
Fore
SplineSet
593 198 m 0
 415 384 55 387 55 387 c 1
 55 387 143 666 191 720 c 0
 236 771 722 721 722 721 c 1
 722 721 617 571 617 569 c 0
 617 567 403 592 279 573 c 24
 224 565 214 565 209 507 c 0
 203 440 549 463 674 314 c 24
 746 227 705 86 610 28 c 0
 479 -52 68 101 68 101 c 1
 43 196 l 1
 43 196 232 139 453 119 c 0
 600 106 637 152 593 198 c 0
EndSplineSet
Validated: 33
EndChar

StartChar: six
Encoding: 54 54 84
Width: 631
VWidth: 0
Flags: HW
LayerCount: 2
Fore
SplineSet
327 145 m 1
 327 145 394 165 396 252 c 0
 396 258 386 308 319 324 c 0
 304 327 167 336 148 325 c 0
 114 305 115 182 147 166 c 0
 210 135 327 145 327 145 c 1
401 741 m 0
 460 769 567 801 567 801 c 1
 638 724 l 1
 638 724 415 692 241 486 c 0
 218 459 183 410 183 410 c 1
 192 442 441 416 499 392 c 0
 545 372 533 228 533 187 c 0
 533 150 480 70 406 37 c 0
 384 27 223 -20 105 64 c 0
 -1 140 8 314 9 317 c 0
 10 320 53 458 122 541 c 0
 214 653 270 679 401 741 c 0
EndSplineSet
Validated: 37
EndChar

StartChar: seven
Encoding: 55 55 85
Width: 718
VWidth: 0
Flags: HW
LayerCount: 2
Fore
SplineSet
83 553 m 5
 11 761 l 5
 11 761 120 774 189 769 c 4
 372 757 618 707 645 662 c 4
 676 609 441 374 441 374 c 5
 565 373 l 5
 565 373 498 268 498 266 c 4
 498 264 380 276 380 276 c 5
 316 14 l 5
 316 14 171 31 173 32 c 4
 175 33 313 276 313 276 c 5
 314 279 203 267 213 302 c 4
 213 304 241 394 243 395 c 4
 245 396 378 379 378 381 c 4
 378 383 474 629 474 629 c 5
 213 666 l 29
 213 666 179 580 179 578 c 4
 179 576 83 553 83 553 c 5
EndSplineSet
Validated: 33
EndChar

StartChar: eight
Encoding: 56 56 86
Width: 628
VWidth: 0
Flags: HW
LayerCount: 2
Fore
SplineSet
422 456 m 25
 443 497 474 554 474 562 c 0
 474 570 406 645 397 645 c 0
 388 645 302 613 302 605 c 0
 302 597 264 526 240 475 c 25
 281 444 342 398 344 396 c 0
 346 394 315 287 307 281 c 0
 299 275 170 166 170 160 c 0
 170 154 233 39 279 24 c 0
 325 9 500 103 495 145 c 0
 490 187 381 299 381 299 c 1
 422 456 l 25
290 772 m 0
 383 793 534 764 534 764 c 1
 534 764 644 645 621 561 c 0
 569 366 430 347 430 347 c 1
 558 305 l 25
 558 305 609 155 609 153 c 0
 609 151 567 -20 567 -20 c 25
 567 -20 436 -71 351 -65 c 24
 240 -58 74 11 74 11 c 25
 74 11 7 159 47 235 c 24
 95 325 259 361 259 361 c 1
 186 408 l 1
 186 409 50 525 83 635 c 0
 112 730 202 752 290 772 c 0
EndSplineSet
Validated: 33
EndChar

StartChar: nine
Encoding: 57 57 87
Width: 669
VWidth: 0
Flags: HW
LayerCount: 2
Fore
SplineSet
510 594 m 24
 514 646 420 691 417 691 c 0
 414 691 305 698 288 688 c 0
 271 678 192 597 189 570 c 0
 186 543 227 481 243 473 c 0
 259 465 397 457 400 462 c 0
 403 467 505 527 510 594 c 24
36 152 m 24
 164 181 372 125 372 125 c 1
 372 125 479 208 509 285 c 24
 532 342 497 442 497 442 c 1
 497 442 445 383 400 367 c 0
 368 356 329 338 196 373 c 0
 134 389 100 460 86 516 c 0
 66 595 103 657 103 657 c 1
 103 657 138 726 219 766 c 0
 271 792 405 817 525 780 c 0
 599 757 658 580 658 580 c 1
 658 580 664 283 566 162 c 0
 554 147 445 23 445 23 c 1
 445 23 344 6 278 10 c 24
 181 16 32 49 32 49 c 1
 32 49 -3 144 36 152 c 24
EndSplineSet
Validated: 33
EndChar

StartChar: underscore
Encoding: 95 95 88
Width: 825
VWidth: 0
Flags: HW
LayerCount: 2
Fore
SplineSet
108 16 m 5
 732 28 l 5
 732 28 712 -81 708 -81 c 4
 704 -81 85 -82 85 -82 c 5
 108 16 l 5
EndSplineSet
Validated: 1
EndChar

StartChar: glyph90
Encoding: 256 287 89
Width: 927
VWidth: 0
Flags: HW
LayerCount: 2
Fore
SplineSet
308 770 m 0
 296 772 458 739 460 739 c 0
 462 739 650 782 652 782 c 0
 654 782 738 719 738 719 c 0
 652 694 l 0
 388 700 l 1
 388 700 207 606 234 659 c 0
 257 705 308 770 308 770 c 0
825 484 m 1
 617 477 l 25
 617 477 579 508 551 505 c 0
 447 494 253 557 181 428 c 24
 115 310 335 119 335 119 c 1
 631 94 l 1
 689 242 l 25
 621 231 l 25
 611 188 l 1
 497 215 l 25
 497 215 465 289 521 343 c 0
 577 396 751 365 751 365 c 0
 765 349 846 215 844 213 c 0
 842 211 778 60 689 30 c 24
 538 -20 281 25 281 25 c 1
 281 25 118 161 81 282 c 0
 46 394 79 485 181 543 c 0
 353 641 425 688 560 662 c 0
 836 609 851 550 851 550 c 1
 825 484 l 1
EndSplineSet
Validated: 33
EndChar

StartChar: glyph91
Encoding: 257 286 90
Width: 907
VWidth: 0
Flags: HW
LayerCount: 2
Fore
SplineSet
198 786 m 1
 198 786 437 739 439 739 c 0
 441 739 620 791 622 791 c 0
 624 791 708 801 720 772 c 0
 732 743 623 690 613 690 c 0
 603 690 294 707 294 707 c 25
 140 686 l 25
 198 786 l 1
805 484 m 25
 596 425 l 25
 596 425 557 456 529 453 c 24
 425 442 268 390 268 390 c 25
 347 143 l 25
 611 94 l 25
 660 200 l 25
 592 190 l 25
 582 146 l 25
 392 164 l 25
 392 164 368 279 424 333 c 0
 480 386 595 365 721 333 c 0
 811 310 825 215 823 213 c 0
 821 211 758 60 669 30 c 24
 518 -20 261 25 261 25 c 1
 261 25 97 161 60 282 c 24
 25 394 89 582 89 582 c 1
 89 582 405 688 540 662 c 0
 816 609 830 550 830 550 c 1
 805 484 l 25
EndSplineSet
Validated: 33
EndChar

StartChar: Adieresis
Encoding: 196 196 91
Width: 755
VWidth: 0
Flags: HW
LayerCount: 2
Fore
SplineSet
498 687 m 0
 470 711 425 720 424 721 c 0
 423 722 402 765 414 790 c 24
 427 817 477 832 478 832 c 0
 479 832 531 787 533 784 c 0
 535 781 537 722 538 721 c 0
 539 720 513 674 498 687 c 0
228 655 m 24
 196 654 155 687 154 688 c 0
 153 689 131 731 142 756 c 24
 154 783 204 800 205 800 c 0
 206 800 258 755 260 752 c 0
 262 749 266 691 267 690 c 0
 268 689 248 655 228 655 c 24
319 486 m 1
 371 441 l 1
 370 480 426 408 429 362 c 0
 429 360 501 511 446 547 c 24
 400 577 319 486 319 486 c 1
378 685 m 0
 743 585 727 399 721 346 c 0
 704 185 684 16 639 -26 c 0
 600 -63 496 0 496 0 c 25
 382 90 l 1
 422 304 l 25
 422 304 355 386 311 364 c 24
 261 338 268 226 268 226 c 25
 350 77 l 25
 199 -26 l 1
 199 -26 106 9 106 11 c 0
 106 13 2 210 43 326 c 24
 104 501 314 677 314 677 c 1
 314 677 354 692 378 685 c 0
EndSplineSet
Validated: 33
EndChar

StartChar: Udieresis
Encoding: 220 220 92
Width: 774
VWidth: 0
Flags: HW
LayerCount: 2
Fore
SplineSet
561 673 m 0
 529 672 488 705 487 706 c 0
 486 707 464 749 475 774 c 24
 487 801 537 818 538 818 c 0
 569 820 622 807 665 742 c 0
 667 739 662 678 663 677 c 0
 664 676 581 673 561 673 c 0
252 681 m 0
 220 680 179 712 178 713 c 0
 177 714 155 757 166 782 c 24
 178 809 228 825 229 825 c 0
 260 827 347 788 324 783 c 0
 321 782 320 718 321 717 c 0
 322 716 272 681 252 681 c 0
197 645 m 24
 278 654 289 632 318 561 c 0
 356 469 284 310 282 310 c 0
 280 310 254 315 252 304 c 0
 238 233 179 237 215 173 c 28
 242 125 297 126 354 129 c 28
 395 131 470 175 470 182 c 0
 470 189 436 400 484 569 c 0
 501 629 509 632 577 633 c 24
 629 634 674 609 687 562 c 24
 721 442 708 373 666 256 c 0
 624 139 639 73 521 15 c 0
 414 -38 322 -31 211 13 c 0
 108 54 114 98 78 197 c 24
 42 294 105 356 104 458 c 24
 104 481 64 489 75 510 c 24
 106 573 123 637 197 645 c 24
EndSplineSet
Validated: 33
EndChar

StartChar: Odieresis
Encoding: 214 214 93
Width: 761
VWidth: 0
Flags: HW
LayerCount: 2
Fore
SplineSet
267 211 m 1
 267 211 384 197 447 233 c 0
 544 288 586 358 587 361 c 0
 588 364 624 444 595 492 c 24
 558 554 508 589 441 582 c 0
 366 574 289 487 255 414 c 0
 162 214 267 211 267 211 c 1
208 54 m 24
 146 84 100 123 64 159 c 0
 35 189 29 232 26 262 c 0
 22 300 36 463 103 534 c 0
 179 615 220 692 325 696 c 0
 481 701 704 565 708 557 c 0
 712 549 786 372 733 282 c 24
 642 128 384 6 384 6 c 1
 384 6 273 23 208 54 c 24
594 650 m 0
 565 650 529 679 529 680 c 0
 529 681 508 718 518 741 c 24
 529 765 573 781 574 781 c 0
 602 783 649 771 687 712 c 0
 689 710 685 654 685 653 c 0
 685 652 612 650 594 650 c 0
165 681 m 0
 136 681 99 710 99 711 c 0
 99 712 79 750 89 773 c 24
 100 797 144 812 145 812 c 0
 173 814 248 778 228 774 c 0
 225 773 227 715 227 714 c 0
 227 713 183 681 165 681 c 0
EndSplineSet
Validated: 33
EndChar

StartChar: asciicircum
Encoding: 94 94 94
Width: 706
VWidth: 0
Flags: HW
LayerCount: 2
Fore
SplineSet
117 609 m 0
 104 594 176 609 178 609 c 0
 180 609 256 741 353 743 c 0
 466 745 550 614 550 613 c 0
 550 612 621 615 614 621 c 0
 515 694 352 811 352 810 c 0
 352 809 189 692 117 609 c 0
EndSplineSet
Validated: 41
EndChar

StartChar: grave
Encoding: 96 96 95
Width: 677
VWidth: 0
Flags: HW
LayerCount: 2
Fore
SplineSet
241 815 m 4
 229 827 309 808 309 808 c 4
 372 795 l 4
 372 795 440 767 503 711 c 4
 513 702 518 683 506 676 c 28
 482 662 459 657 434 670 c 28
 351 714 307 747 241 815 c 4
EndSplineSet
Validated: 33
EndChar

StartChar: asciitilde
Encoding: 126 126 96
Width: 845
VWidth: 0
Flags: HW
LayerCount: 2
Fore
SplineSet
158 349 m 0
 142 341 139 379 151 391 c 0
 216 461 253 550 350 538 c 0
 455 525 438 402 534 359 c 0
 584 337 654 459 705 479 c 24
 714 482 734 474 727 467 c 24
 674 419 597 291 527 309 c 0
 429 335 447 464 347 479 c 0
 257 493 239 388 158 349 c 0
EndSplineSet
Validated: 33
EndChar

StartChar: Ccedilla
Encoding: 199 199 97
Width: 897
VWidth: 0
Flags: HW
LayerCount: 2
Fore
SplineSet
775 510 m 24
 644 476 436 574 434 572 c 0
 432 570 239 536 200 438 c 24
 165 350 292 212 292 212 c 1
 292 212 438 67 415 229 c 1
 447 274 530 245 530 245 c 4
 530 245 536 172 543 176 c 5
 606 214 702 337 702 337 c 1
 702 337 854 285 852 283 c 0
 850 281 745 91 732 86 c 0
 665 60 530 111 566 18 c 1
 643 -144 442 -74 396 -71 c 1
 432 137 273 48 156 95 c 0
 65 132 3 316 53 465 c 0
 116 653 199 682 373 778 c 0
 451 821 600 788 600 788 c 25
 865 684 l 25
 865 684 850 529 775 510 c 24
EndSplineSet
Validated: 33
EndChar

StartChar: glyph99
Encoding: 258 351 98
Width: 796
VWidth: 0
Flags: HW
LayerCount: 2
Fore
SplineSet
89 588 m 4
 89 588 306 708 462 741 c 0
 556 761 708 717 708 717 c 1
 775 571 l 1
 726 483 l 0
 726 483 573 545 568 547 c 0
 493 649 l 1
 493 649 380 656 321 623 c 24
 286 604 274 531 274 531 c 1
 416 451 539 319 696 279 c 1
 696 279 732 147 680 114 c 0
 627 81 381 213 486 -61 c 1
 439 -72 359 -50 321 -55 c 1
 286 47 290 59 228 55 c 1
 228 55 70 48 69 48 c 0
 68 48 18 217 18 217 c 1
 101 253 l 0
 218 141 l 1
 280 150 l 1
 278 247 l 1
 418 237 l 1
 441 183 l 1
 620 199 l 1
 539 247 l 1
 210 414 l 1
 210 414 81 576 89 588 c 4
EndSplineSet
Validated: 33
EndChar

StartChar: glyph100
Encoding: 259 350 99
Width: 880
VWidth: 0
Flags: HW
LayerCount: 2
Fore
SplineSet
785 330 m 0
 690 445 564 492 560 495 c 0
 501 537 551 624 551 624 c 1
 330 628 l 25
 321 531 l 17
 463 451 586 319 743 279 c 1
 743 279 780 147 728 114 c 0
 675 81 428 213 533 -61 c 1
 486 -72 459 -54 421 -59 c 1
 386 43 362 54 300 50 c 1
 300 50 75 50 74 50 c 0
 73 50 22 219 22 219 c 1
 22 219 80 228 105 255 c 0
 160 313 220 243 220 243 c 1
 373 126 l 1
 350 243 l 1
 465 237 l 1
 489 183 l 1
 667 199 l 1
 586 247 l 1
 257 414 l 1
 257 414 110 537 142 628 c 0
 170 707 370 744 526 777 c 24
 620 797 771 759 771 759 c 25
 822 571 l 25
 822 571 843 260 785 330 c 0
EndSplineSet
Validated: 33
EndChar

StartChar: ccedilla
Encoding: 231 231 100
Width: 897
VWidth: 0
Flags: HW
LayerCount: 2
Fore
SplineSet
691 588 m 0
 525 670 409 643 407 641 c 0
 405 639 200 569 161 471 c 0
 126 383 204 243 204 243 c 1
 204 243 392 172 390 173 c 1
 390 173 406 222 415 263 c 1
 486 256 535 293 525 174 c 1
 554 178 l 4
 745 216 l 1
 745 216 806 178 804 176 c 0
 802 174 566 99 549 87 c 0
 485 42 532 -87 489 -88 c 1
 334 -75 360 72 360 72 c 1
 360 72 210 88 161 126 c 0
 82 186 7 347 57 496 c 0
 120 684 162 673 336 769 c 0
 414 812 563 778 563 778 c 1
 775 674 l 1
 775 674 760 554 691 588 c 0
EndSplineSet
Validated: 33
EndChar

StartChar: braceleft
Encoding: 123 123 101
Width: 458
VWidth: 0
Flags: HW
LayerCount: 2
Fore
SplineSet
194 737 m 0
 224 763 312 782 348 768 c 24
 370 759 342 709 337 705 c 0
 332 701 231 716 198 650 c 0
 175 604 194 509 194 504 c 0
 194 499 213 436 251 432 c 0
 270 430 267 359 260 353 c 0
 257 351 212 324 184 273 c 0
 164 236 182 162 214 128 c 0
 273 65 396 85 394 85 c 0
 392 85 404 49 390 41 c 24
 356 22 292 24 279 24 c 0
 266 24 206 47 187 68 c 0
 153 106 142 136 139 143 c 0
 136 150 120 202 129 239 c 24
 137 274 152 290 179 315 c 0
 187 322 201 333 192 337 c 0
 140 358 92 371 92 371 c 0
 92 371 139 398 182 441 c 0
 192 452 167 469 157 481 c 0
 151 488 134 509 128 537 c 0
 121 572 117 596 128 630 c 24
 143 677 158 705 194 737 c 0
EndSplineSet
Validated: 37
EndChar

StartChar: braceright
Encoding: 125 125 102
Width: 417
VWidth: 0
Flags: HW
LayerCount: 2
Fore
SplineSet
88 768 m 28
 124 782 212 763 242 737 c 0
 278 705 294 677 309 630 c 24
 320 596 316 572 309 537 c 0
 303 509 285 488 279 481 c 0
 269 469 244 452 254 441 c 0
 297 398 344 371 344 371 c 0
 344 371 296 358 244 337 c 0
 235 333 249 322 257 315 c 0
 284 290 299 274 307 239 c 24
 316 202 300 150 297 143 c 0
 294 136 283 106 249 68 c 0
 230 47 170 24 157 24 c 0
 144 24 81 22 47 41 c 24
 33 49 44 85 42 85 c 0
 40 85 163 65 222 128 c 0
 254 162 272 236 252 273 c 0
 224 324 179 351 176 353 c 0
 169 359 166 430 185 432 c 0
 223 436 242 499 242 504 c 0
 242 509 261 604 238 650 c 0
 205 716 104 701 99 705 c 0
 94 709 66 759 88 768 c 28
EndSplineSet
Validated: 37
EndChar

StartChar: bar
Encoding: 124 124 103
Width: 403
VWidth: 0
Flags: HW
LayerCount: 2
Fore
SplineSet
128 742 m 24
 138 825 221 831 232 748 c 24
 265 488 265 307 234 45 c 24
 224 -39 141 -38 130 45 c 24
 98 304 97 483 128 742 c 24
EndSplineSet
Validated: 33
EndChar

StartChar: odieresis
Encoding: 246 246 104
Width: 761
VWidth: 0
Flags: HW
LayerCount: 2
Fore
SplineSet
169 168 m 1
 169 168 354 91 417 127 c 0
 514 182 653 325 654 328 c 0
 655 331 624 443 595 492 c 0
 558 554 508 575 441 582 c 4
 216 607 191 444 157 371 c 0
 64 171 169 168 169 168 c 1
208 54 m 24
 146 84 100 123 64 159 c 0
 35 189 29 232 26 262 c 0
 22 300 61 451 128 522 c 0
 204 603 220 692 325 696 c 0
 481 701 704 565 708 557 c 0
 712 549 732 352 679 262 c 24
 588 108 384 6 384 6 c 1
 384 6 273 23 208 54 c 24
594 650 m 0
 565 650 529 679 529 680 c 0
 529 681 508 718 518 741 c 24
 529 765 573 781 574 781 c 0
 602 783 649 771 687 712 c 0
 689 710 685 654 685 653 c 0
 685 652 612 650 594 650 c 0
212 690 m 0
 183 690 146 718 146 719 c 0
 146 720 125 758 135 781 c 24
 146 805 191 821 192 821 c 0
 220 823 295 786 275 782 c 0
 272 781 273 724 273 723 c 0
 273 722 230 690 212 690 c 0
EndSplineSet
Validated: 33
EndChar

StartChar: adieresis
Encoding: 228 228 105
Width: 624
VWidth: 0
Flags: HW
LayerCount: 2
Fore
SplineSet
455 649 m 0
 430 673 389 682 389 683 c 0
 389 684 370 727 380 752 c 24
 391 779 436 794 437 794 c 0
 438 794 485 749 486 746 c 0
 487 743 491 685 491 684 c 0
 491 683 469 636 455 649 c 0
160 655 m 24
 131 654 94 687 94 688 c 0
 94 689 73 731 83 756 c 24
 94 783 138 800 139 800 c 0
 140 800 188 755 189 752 c 0
 190 749 195 691 195 690 c 0
 195 689 178 655 160 655 c 24
241 486 m 1
 287 441 l 1
 385 340 l 0
 385 338 403 511 354 547 c 0
 313 577 241 486 241 486 c 1
293 685 m 0
 615 587 580 299 580 299 c 0
 580 299 566 16 526 -26 c 0
 491 -63 398 0 398 0 c 1
 405 190 l 1
 333 304 l 1
 333 304 273 387 234 364 c 0
 189 338 158 286 157 220 c 24
 155 136 225 20 225 20 c 1
 65 16 l 1
 65 16 52 65 52 67 c 0
 52 69 29 223 65 340 c 0
 119 515 237 677 237 677 c 1
 237 677 272 692 293 685 c 0
EndSplineSet
Validated: 33
EndChar

StartChar: udieresis
Encoding: 252 252 106
Width: 540
VWidth: 0
Flags: HW
LayerCount: 2
Fore
SplineSet
376 650 m 0
 356 650 330 675 330 676 c 0
 330 677 315 710 322 730 c 24
 330 751 361 765 362 765 c 0
 382 767 415 756 442 705 c 0
 443 703 441 654 441 653 c 0
 441 652 389 650 376 650 c 0
168 659 m 0
 144 659 113 687 113 688 c 0
 113 689 96 728 104 750 c 24
 113 774 150 789 151 789 c 0
 174 791 238 755 221 751 c 0
 219 750 219 693 219 692 c 0
 219 691 183 659 168 659 c 0
266 106 m 0
 207 80 139 141 119 184 c 0
 93 242 142 323 217 551 c 0
 231 594 187 635 127 627 c 0
 73 620 60 562 37 506 c 0
 29 487 29 375 29 375 c 25
 29 375 13 311 39 224 c 0
 66 135 61 95 137 58 c 0
 219 18 288 12 367 60 c 0
 454 113 443 171 474 277 c 0
 505 382 515 444 490 552 c 24
 481 594 447 617 408 616 c 0
 358 614 487 204 266 106 c 0
EndSplineSet
Validated: 41
EndChar
